<svg aria-hidden="true" style="width:0;height:0;position:absolute;overflow:hidden" xmlns="http://www.w3.org/2000/svg"><defs><symbol id="icon-icon-cow-desc" viewBox="0 0 32 32"><path d="M6.169.192c-.262.226-1.008 1.781-1.276 2.631-.318 1.052-.427 1.84-.384 2.93.058 1.556.449 2.736 1.31 3.968.225.324.406.601.406.624 0 .015-.138.03-.311.03-.747 0-2.144.248-3.215.571-1.7.512-2.7 1.405-2.7 2.405 0 .354.318.955.659 1.262.659.595 2.1 1.158 3.649 1.428.536.098 2.129.263 2.484.27.065 0 .087.347.087 1.481 0 .977.036 1.736.108 2.202.26 1.668 1.071 3.434 2.142 4.682l.37.428-.246.398c-.362.564-.5.992-.542 1.63-.109 1.533.846 2.893 2.693 3.848 3.517 1.826 8.984 1.112 11.033-1.443.999-1.248 1.115-2.676.325-3.968l-.246-.398.442-.533c.826-.992 1.361-1.984 1.766-3.239.34-1.067.471-2.097.471-3.728 0-.743.021-1.36.058-1.36.333-.007 1.933-.18 2.44-.27 1.556-.27 2.969-.827 3.649-1.428.34-.308.659-.909.659-1.262 0-1.113-1.129-2.014-3.229-2.556-.687-.18-1.983-.398-2.613-.436l-.297-.023.326-.451c.405-.548.912-1.616 1.108-2.315.55-2.021.21-4.373-.97-6.62-.493-.932-.834-1.15-1.231-.783-.152.144-.218.339-.362 1.045-.449 2.247-1.282 4.028-2.498 5.342l-.536.587H10.245l-.478-.518C8.58 5.315 7.718 3.467 7.269 1.212 7.124.505 7.059.311 6.907.168c-.239-.218-.471-.211-.738.022zm.925 4.457c.384.841.862 1.63 1.426 2.359l.449.579-.47.353c-.442.338-.854.82-1.173 1.369l-.137.247-.348-.474c-1.188-1.637-1.484-3.644-.854-5.726.304-1.006.297-.999.572-.127.131.42.377 1.06.536 1.42zm18.845-1.586c.262.728.414 1.569.414 2.444l-.001.093v-.005c0 1.367-.362 2.524-1.122 3.562l-.34.466-.253-.428a4.534 4.534 0 0 0-1.254-1.381l-.013-.009c-.196-.127-.347-.255-.347-.27 0-.022.137-.196.311-.383.804-.894 1.665-2.502 2.092-3.885.13-.428.26-.782.282-.782s.131.264.231.58zM22.24 8.556c.804.338 1.571 1.307 1.694 2.126.065.451.217.737.412.782.087.014.688.067 1.332.112 2.287.151 4.09.639 4.858 1.308.355.316.318.579-.108.902-.854.646-2.7 1.134-4.583 1.218-1.245.052-1.506.089-1.673.262-.123.128-.137.263-.137 1.623 0 1.842-.094 2.901-.326 3.757-.325 1.164-.97 2.405-1.723 3.284l-.311.361-.644-.384a7.832 7.832 0 0 0-2.335-.958l-.054-.011c-2.744-.654-5.778-.256-7.819 1.029l-.471.3-.297-.353c-.405-.474-1.043-1.488-1.296-2.059-.557-1.293-.724-2.345-.724-4.66 0-2.247.116-2.082-1.549-2.172-2.129-.113-3.751-.496-4.772-1.142-.753-.481-.629-.909.42-1.413 1.006-.489 2.388-.781 4.308-.901 1.492-.098 1.527-.121 1.665-.842.203-1.09 1.006-1.991 2.02-2.277.253-.075 1.672-.09 6.016-.083l5.684.015.412.173zm-4.069 15.556c1.774.436 3.099 1.247 3.671 2.254.138.233.196.474.224.842.029.458.008.571-.166.947-.804 1.707-3.757 2.833-6.762 2.578-3.612-.3-5.988-2.315-5.053-4.291.507-1.068 2.222-2.089 4.032-2.39.297-.044.594-.098.652-.113s.71-.015 1.449 0c1.005.023 1.491.068 1.954.173z"/><path d="M10.99 12.321c-.449.151-.753.347-1.158.752-.356.338-.384.736-.087.977.276.225.536.196.868-.098.42-.368.747-.518 1.152-.518.405-.008.716.135 1.15.518.333.293.594.323.869.098.145-.12.188-.218.188-.444 0-.232-.051-.338-.305-.593-.716-.721-1.78-.999-2.678-.692zm8.441-.008c-.462.173-1.057.564-1.295.857-.232.286-.24.609 0 .85.238.255.528.24.876-.045.854-.707 1.492-.729 2.281-.076.203.173.434.308.507.308.355 0 .644-.316.644-.692 0-.24-.601-.796-1.144-1.06-.601-.293-1.317-.346-1.868-.142zM12.04 26.224c-.21.203-.283.496-.174.729.08.188.203.263.702.398.225.06.319.135.398.323.101.249.109.249.667.271l.557.022v-.211c-.007-.3-.174-.736-.391-1.036-.253-.347-.695-.572-1.195-.617-.34-.03-.427-.015-.564.121zm6.914-.053c-.362.098-.883.587-1.028.969a2.525 2.525 0 0 0-.137.677v.008c-.014.323.014.398.188.556.427.376.992.083.992-.518 0-.293.217-.496.601-.572.405-.075.55-.24.557-.623 0-.504-.449-.699-1.173-.496z"/></symbol><symbol id="icon-icon-weight-desc" viewBox="0 0 32 32"><path d="M14.178.547c-3.974.589-7.247 2.796-8.452 5.685-.384.913-.487 1.474-.487 2.573.007.812.036 1.114.163 1.552.258.862.443 1.301.827 1.92l.356.574-.4.489c-3.154 3.924-3.501 9.444-.871 13.793.982 1.632 2.586 3.235 4.151 4.169l.466.273 12.743-.108.302-.165c1.057-.596 2.548-1.926 3.383-3.004a12.51 12.51 0 0 0 2.413-5.546l.01-.074c.118-.74.118-2.933-.007-3.63-.377-2.148-1.182-3.988-2.452-5.62-.244-.309-.436-.568-.436-.589 0-.014.133-.237.288-.489a7.777 7.777 0 0 0 .864-1.962c.199-.719.199-2.516 0-3.235-.709-2.551-2.836-4.679-5.843-5.851-.843-.331-2.284-.683-3.214-.797-.864-.1-2.999-.08-3.804.043zm4.498 1.171c3.945.769 6.834 3.184 7.365 6.16.118.668.044 1.804-.155 2.436-.2.618-.569 1.344-1.004 1.962-.178.252-.325.54-.325.633s.155.338.377.582c1.846 2.048 2.821 4.614 2.821 7.388-.007 3.156-1.219 5.923-3.553 8.093-.399.373-.968.841-1.271 1.042l-.554.373-12.211.051-.473-.302c-1.714-1.113-3.258-2.953-4.115-4.908-1.078-2.472-1.189-5.34-.31-7.913.466-1.337 1.086-2.429 2.031-3.58.385-.46.562-.733.562-.862 0-.108-.192-.46-.444-.827-.886-1.287-1.248-2.717-1.034-4.068.222-1.365.842-2.487 1.987-3.601 1.493-1.444 3.576-2.4 6.021-2.76 1.012-.151 3.25-.093 4.284.1z"/><path d="M14.509 2.983c-3.028.496-5.4 2.178-6.175 4.385-.178.496-.207.69-.207 1.402s.029.905.207 1.401c.11.316.317.756.458.978.384.618.554.64 1.316.18a11.719 11.719 0 0 1 3.727-1.474l.078-.014c.916-.187 2.674-.258 3.671-.143 1.558.18 3.25.74 4.602 1.538.384.222.776.409.871.409.562 0 1.278-1.617 1.278-2.874 0-2.796-2.674-5.19-6.463-5.787-.805-.129-2.587-.129-3.362 0zm3.657 1.15c1.271.273 2.437.791 3.317 1.474 1.182.913 1.817 2.185 1.713 3.413-.036.489-.221 1.15-.332 1.222-.03.014-.444-.158-.916-.388a14.138 14.138 0 0 0-3.131-1.081l-.097-.018c-.687-.143-.975-.165-2.511-.158-1.515 0-1.832.022-2.489.158a13.283 13.283 0 0 0-3.196 1.099l.078-.035c-1.1.524-1.042.532-1.241-.116-.258-.84-.096-1.955.406-2.796.267-.445.997-1.186 1.529-1.552 1.012-.698 1.899-1.013 3.804-1.359.391-.071 2.564.029 3.066.137zm-1.203 9.271c-.207.26-.207.504.007.712.14.137.281.172.791.209a6.489 6.489 0 0 1 2.815.865l-.031-.017c.606.359 1.529 1.229 1.943 1.854.613.898 1.034 2.185 1.034 3.134 0 .331.03.431.185.574.236.237.547.237.776 0 .163-.165.169-.208.125-.912-.207-3.479-3.184-6.382-6.744-6.578l-.74-.043-.162.202z"/></symbol><symbol id="icon-icon-telegram" viewBox="0 0 32 32"><path d="m12.867 18.376-.317 4.169c.455 0 .651-.183.888-.401l2.13-1.901 4.414 3.018c.809.421 1.381.199 1.599-.696l2.898-12.673c.257-1.117-.433-1.554-1.221-1.28L6.225 14.698c-1.163.422-1.145 1.026-.198 1.301l4.354 1.264 10.115-5.907c.476-.295.909-.132.552.163l-8.182 6.856z"/></symbol><symbol id="icon-icon-ice-cream-desc" viewBox="0 0 36 36"><path d="M18.122.12c.09.242.271 1.409.271 1.77a3.47 3.47 0 0 1-.941 2.388c-.505.542-1.01.843-2.222 1.333-1.348.55-1.906.881-2.538 1.506-.64.64-1.017 1.34-1.152 2.162-.151.896 0 1.528.459 1.89l.233.18-.369.234c-.745.49-2.1 1.642-2.334 1.996-.452.678-.407 1.31.105 1.567l.241.12-.271.256c-.407.384-.49.648-.43 1.34.038.46.023.709-.082 1.085-.128.49-.128.497.037.844.166.339.633.768 1.055.949.203.09.21.12.256.813.023.4.06 1.672.09 2.832.023 1.16.076 2.222.12 2.35.038.135.181.316.31.406.436.302.738.626.933 1.002.219.43.46 1.484 1.19 5.129l.512 2.56.317.302c.602.595 1.755.866 3.653.866 1.905 0 3.042-.264 3.645-.859l.324-.308L22 32.46c1.031-5.189 1.122-5.475 1.928-6.115.248-.204.49-.452.534-.565.053-.128.106-1.115.143-2.606.03-1.325.076-2.636.106-2.915l.045-.504.49-.37c.617-.474.858-.903.858-1.566-.007-.783-.52-1.642-1.453-2.41l-.445-.361.219-.31c.911-1.257.339-2.997-1.356-4.156l-.512-.354.188-.196c.836-.896.972-3.57.271-5.43-.421-1.107-1.386-2.312-2.568-3.201C19.87.964 18.272 0 18.13 0c-.03 0-.03.053-.007.12ZM20.29 2.75c.4.392.881.926 1.07 1.197 1.122 1.567 1.408 3.533.73 4.979-.271.587-1.085 1.46-1.838 1.98-1.152.799-3.743 2.14-5.55 2.877-2.907 1.183-4.595 1.409-4.79.633-.076-.294.143-.527 1.07-1.145.835-.572 4.586-3.359 4.653-3.472.023-.03-.361.143-.843.384-1.634.829-2.41.67-2.372-.482.022-.836.625-1.785 1.46-2.327.212-.135.867-.437 1.47-.678 1.98-.798 2.583-1.205 3.253-2.206.4-.595.836-1.695.866-2.162.008-.165.038-.294.06-.294.023 0 .362.324.76.716Zm2.056 8.556c.55.308 1.122.836 1.37 1.25.438.745.212 1.491-.73 2.44-1.024 1.04-2.771 2.034-4.692 2.666-1.77.58-3.464.851-5.89.934l-1.506.053.98.06c1.265.083 3.712.008 4.661-.143 2.523-.4 4.67-1.198 6.206-2.297.347-.249.708-.452.806-.452.249 0 1.333 1.04 1.552 1.476.12.249.15.43.128.67-.113 1.002-1.334 1.537-4.278 1.89-3.6.43-8.307.008-10.318-.918-.95-.437-1.107-.686-.866-1.348.075-.211.09-.46.06-.814-.038-.467-.03-.527.135-.7.377-.407 1.01-.64 3.33-1.228.813-.21 1.92-.542 2.447-.738 1.28-.467 3.683-1.68 4.797-2.425 1.047-.693 1.198-.723 1.808-.376Zm-10.002 9.218c1.582.46 2.983.595 5.589.542 1.958-.037 3.163-.158 4.902-.467.355-.06.663-.113.701-.113.083 0 .06 2.892-.03 3.653-.098.806-.317 1.431-.55 1.582-.241.158-1.446.324-3.058.414-3.306.18-6.703 0-7.757-.422-.572-.233-.633-.535-.64-3.329 0-1.86.015-2.116.113-2.078.06.022.391.12.73.218Zm1.785 6.402c.542.067 1.13.135 1.31.158l.325.038-.287.316c-.369.399-.934 1.197-1.137 1.604-.233.467-.309.497-.655.309l-.294-.166-.165-1.024a28.822 28.822 0 0 0-.211-1.183c-.068-.195-.136-.195 1.114-.052Zm8.029-.083c0 .015-.038.21-.076.43-.045.225-.233 1.453-.421 2.733-.384 2.674-.64 3.931-.874 4.353-.324.565-1.1.896-2.357 1.002-.49.038-1.966-.06-2.049-.136-.06-.067 1.235-1.672 1.439-1.777.188-.106.24-.09.88.24.746.393 1.123.453 1.123.204 0-.248-.196-.49-.678-.82-.444-.317-.602-.498-.602-.709 0-.06.218-.399.482-.753.263-.354.647-.919.843-1.258l.37-.61.338.046c.685.098.866.09.844-.06-.015-.076-.143-.294-.287-.475-.143-.188-.256-.377-.256-.414 0-.143.7-1.461.927-1.74.196-.241.354-.362.354-.256Zm-4.707.602c.376.249 1.792 1.477 1.882 1.627.038.068-1.415 2.342-1.702 2.666-.03.038-.188-.037-.346-.158a24.697 24.697 0 0 0-1.31-.904l-1.017-.67.61-1.032c1.084-1.815 1.062-1.785 1.295-1.785.12 0 .384.113.588.256Zm2.854.271c-.264.324-.482.528-.572.528-.196 0-.513-.173-1.047-.565l-.445-.324.89-.053a17.57 17.57 0 0 0 1.03-.067c.603-.098.603-.09.144.481Zm-5.694 3.623c.693.271 1.868.911 2.207 1.198.241.195.241.21.143.451a7.58 7.58 0 0 1-.467.806 13.73 13.73 0 0 0-.505.836c-.24.467-.316.505-.813.37-.535-.159-.82-.43-.971-.92-.204-.685-.528-2.62-.49-2.922.015-.113.331-.045.896.181Z"/></symbol><symbol id="icon-logo-ice-cream" viewBox="0 0 60 65"><path d="M30.928 34.698c2.874-7.687-3.077-11.894-7.021-14.66-.754-.565-1.508-1.093-2.12-1.576a7.346 7.346 0 0 1-2.316-3.452 7.25 7.25 0 0 1-.059-4.138.792.792 0 0 0-.234-.802.819.819 0 0 0-.83-.165 13.35 13.35 0 0 0-3.657 2.149 8.6 8.6 0 0 0-2.49 2.999 8.47 8.47 0 0 0-.897 3.773 10.018 10.018 0 0 0-1.953 2.015 7.316 7.316 0 0 0-1.44 4.72 9.339 9.339 0 0 0-2.612 4.017 9.224 9.224 0 0 0-.262 4.764c-.48.286-.853.72-1.059 1.234a2.494 2.494 0 0 0-.083 1.615c.153.533.478 1.002.927 1.334.449.333.996.511 1.557.508h.053v4.37c0 .444.18.87.497 1.184.319.313.75.49 1.2.49h1.32l2.15 18.362c.044.409.24.787.551 1.061.31.275.713.426 1.13.426h8.945c.418-.001.82-.153 1.132-.427.311-.274.51-.651.558-1.06l2.149-18.362h1.32c.45 0 .881-.177 1.2-.49a1.66 1.66 0 0 0 .497-1.183v-4.372h.053a2.59 2.59 0 0 0 1.818-.742c.482-.475.753-1.12.753-1.793a2.473 2.473 0 0 0-.754-1.806l-.023.007Zm-19.36-13.946c1.086 4.022 5.28 5.605 9.104 7.018a.831.831 0 0 0 1-.106.81.81 0 0 0 .25-.642.801.801 0 0 0-.34-.601.829.829 0 0 0-.33-.138c-4.118-1.539-8.002-2.974-8.296-7.085a6.79 6.79 0 0 1 .627-3.288 6.896 6.896 0 0 1 2.126-2.607c.574-.47 1.19-.889 1.84-1.25a9.527 9.527 0 0 0 0 1.547 8.714 8.714 0 0 0 .96 3.378 8.833 8.833 0 0 0 2.223 2.74c.626.528 1.403 1.071 2.262 1.65 1.984 1.406 4.239 2.975 5.672 5.1a7.844 7.844 0 0 1 .822 7.546h-3.334c-6.87 0-14.767-1.873-16.328-7.122a5.939 5.939 0 0 1 .007-3.301 6.01 6.01 0 0 1 1.773-2.802l-.038-.037Zm6.185 25.343 2.519 2.483-2.52 2.483-2.518-2.498 2.519-2.468Zm5.777 6.52-2.082 2.052-2.519-2.483 2.52-2.476 2.186 2.148-.105.759Zm-5.777 5.694-2.52-2.483 2.52-2.483 2.519 2.483-2.52 2.483Zm-1.154-6.11-2.52 2.483-2.096-2.067-.09-.744 2.187-2.148 2.519 2.476Zm-3.68 3.627-.506.498-.128-1.13.633.632Zm-.265 2.543 1.426-1.405 2.768 2.75c.014.056.032.11.053.164h-4.073l-.174-1.51Zm8.78-1.405 1.425 1.405-.174 1.487H18.5l2.934-2.892Zm1.658-.64-.505-.498.641-.632-.136 1.13Zm.755-6.497-1.26-1.264 1.599-1.576-.34 2.84Zm-2.421-2.394-2.391-2.349h4.782l-2.391 2.35Zm-7.354 0-2.39-2.349h4.781l-2.39 2.35Zm8.146 15.88H13.28a.06.06 0 0 1-.052-.052l-.212-1.785h9.473l-.204 1.785a.06.06 0 0 1-.06.052h-.007Zm6.916-25.901h-2.625a.834.834 0 0 0-.631.207.81.81 0 0 0-.27.6.8.8 0 0 0 .27.6.824.824 0 0 0 .631.206h.935v4.371a.059.059 0 0 1-.02.038.06.06 0 0 1-.04.014H8.099a.06.06 0 0 1-.04-.014.06.06 0 0 1-.02-.038v-4.37h14.94a.826.826 0 0 0 .53-.263.803.803 0 0 0 0-1.09.826.826 0 0 0-.53-.261H6.387a.948.948 0 0 1-.715-.238.922.922 0 0 1-.304-.68.91.91 0 0 1 .304-.68.94.94 0 0 1 .715-.238h1.712a.827.827 0 0 0 .53-.262.804.804 0 0 0 0-1.09.827.827 0 0 0-.53-.262H6.591a7.859 7.859 0 0 1 .103-3.411 7.926 7.926 0 0 1 1.54-3.056c.529 1.62 1.886 3.836 5.28 5.598 3.19 1.642 7.414 2.483 12.55 2.483h3.017a.948.948 0 0 1 .715.237.923.923 0 0 1 .304.68.91.91 0 0 1-.304.681.94.94 0 0 1-.715.238h.053Z"/><path d="m34.459 59.215-.595.911.012.008.583-.92Zm6.396.308 1.087-.025-.028-1.259-1.241.211.182 1.073Zm.074 3.346.277 1.053.83-.219-.02-.858-1.087.024Zm-8.394.16.245-1.06-.007-.002-.238 1.062Zm-4.143-1.849.704-.83h-.002l-.702.83Zm-1.498-3.4 1.088.006v-.006h-1.088Zm.52-2.38-.976-.48v.002l.976.478Zm3.336-2.847.386 1.017.004-.002-.39-1.015Zm10.689-.276 1.085.084.071-.919-.894-.221-.262 1.056Zm-.266 3.41-.202 1.069 1.193.226.094-1.21-1.085-.085Zm-2.9-1.396c-1.633 0-3.006.174-4.008.615-.514.226-.981.544-1.322.993a2.56 2.56 0 0 0-.518 1.573H34.6a.39.39 0 0 1 .076-.258c.057-.075.184-.193.464-.316.584-.257 1.591-.431 3.132-.431V54.29Zm-5.848 3.181c0 1.12.502 2.043 1.44 2.654l1.188-1.823c-.324-.21-.452-.449-.452-.831h-2.176Zm1.451 2.662c.89.563 2.062.774 3.377.774v-2.176c-1.136 0-1.826-.192-2.212-.437l-1.165 1.839Zm3.377.774c1.29 0 2.552-.104 3.784-.313l-.364-2.145a20.41 20.41 0 0 1-3.42.282v2.176Zm2.514-1.361.074 3.347 2.176-.049-.075-3.346-2.175.048Zm.885 2.27c-1.244.328-2.616.496-4.122.496v2.176c1.668 0 3.228-.186 4.676-.567l-.554-2.105Zm-4.122.496c-1.537 0-2.78-.121-3.75-.344l-.489 2.12c1.183.273 2.603.4 4.24.4v-2.176Zm-3.757-.346c-1.039-.232-1.789-.479-2.289-.723l-.955 1.955c.718.35 1.654.642 2.769.892l.475-2.124Zm-2.289-.723a6.625 6.625 0 0 1-1.388-.894l-1.408 1.66a8.8 8.8 0 0 0 1.841 1.189l.955-1.955Zm-1.39-.895c-.74-.625-1.118-1.441-1.112-2.563l-2.176-.011c-.009 1.71.611 3.16 1.883 4.236l1.405-1.662Zm-1.112-2.569c0-.731.143-1.358.41-1.901l-1.955-.957c-.428.873-.631 1.833-.631 2.858h2.176Zm.409-1.9c.494-1.006 1.368-1.788 2.745-2.31l-.772-2.035c-1.796.682-3.146 1.799-3.926 3.385l1.953.96Zm2.75-2.312c1.447-.555 3.062-.841 4.858-.841v-2.176c-2.03 0-3.913.323-5.639.986l.78 2.031Zm4.858-.841c1.831 0 3.556.203 5.178.606l.524-2.112c-1.807-.448-3.709-.67-5.702-.67v2.176Zm4.355-.535-.265 3.41 2.169.17.266-3.411-2.17-.169Zm1.022 2.426c-1.132-.214-2.169-.327-3.103-.327v2.176c.765 0 1.662.093 2.698.289l.405-2.138Zm10.616 1.738-.006 1.088 1.105.006-.011-1.105-1.088.011Zm-.468-1.413-.74.798.01.008.73-.806Zm-2.71.107.754.785.008-.008-.761-.777Zm-.658 1.285-1.074-.176-.206 1.257 1.274.007.006-1.088Zm8 5.801.658.867.39-.296.037-.49-1.084-.08Zm-2.348.872-.233-1.063-.007.001.24 1.062Zm-8.16-.298-.37 1.023.008.003.362-1.026Zm-1.859-.988-.675.853.006.005.007.005.662-.863Zm-1.243-1.562-.975.482.002.005.973-.487Zm1.275-6.598.724.813-.724-.813Zm9.945-1.18.435-.996-.01-.005-.425 1.002Zm2.497 2.296-.979.475.003.006.976-.481Zm.425 1.902 1.085.078.003-.039v-.04h-1.088Zm-.128 1.753-.005 1.088 1.017.005.073-1.014-1.085-.08Zm-8.617-.043.006-1.088-1.42-.007.362 1.373 1.053-.278Zm1.233 1.52-.535.947.004.002.531-.95Zm6.609-.372V58.35h-.218l-.2.083.418 1.005Zm.573 0 1.085.08.088-1.168h-1.173v1.088Zm-3.278-3.093c-.009-.787-.19-1.631-.825-2.208l-1.462 1.612c-.013-.011.012.002.043.096.033.1.065.267.068.523l2.175-.023Zm-.816-2.199c-.57-.53-1.32-.705-2.057-.705v2.176c.423 0 .553.101.577.124l1.48-1.595Zm-2.057-.705c-.81 0-1.564.254-2.154.831l1.523 1.555c.119-.117.293-.21.63-.21V53.44Zm-2.146.824a3.318 3.318 0 0 0-.979 1.894l2.148.353c.05-.302.165-.512.338-.678l-1.507-1.57Zm.089 3.158 3.836.021.012-2.175-3.836-.022-.012 2.176Zm7.35 3.846c-.24.181-.821.433-1.925.676l.467 2.125c1.148-.253 2.132-.582 2.772-1.067l-1.315-1.734Zm-1.932.677a13.76 13.76 0 0 1-3.043.356v2.176c1.15 0 2.325-.138 3.524-.41l-.48-2.122Zm-3.043.356c-1.025 0-1.87-.048-2.543-.139l-.29 2.157c.8.107 1.748.158 2.833.158v-2.176Zm-2.543-.139a9.867 9.867 0 0 1-1.971-.479l-.725 2.052c.791.28 1.593.474 2.406.584l.29-2.157Zm-1.962-.476c-.637-.23-1.154-.51-1.569-.828l-1.324 1.726c.62.475 1.342.854 2.15 1.148l.742-2.046Zm-1.556-.818a3.467 3.467 0 0 1-.945-1.195l-1.946.973a5.638 5.638 0 0 0 1.54 1.928l1.352-1.706Zm-.943-1.191c-.229-.463-.365-1.059-.365-1.823H40.98c0 1.02.182 1.961.59 2.787l1.951-.964Zm-.365-1.823c0-.766.138-1.442.399-2.043l-1.996-.866c-.391.9-.579 1.875-.579 2.909h2.176Zm.399-2.043c.274-.632.61-1.1.99-1.437l-1.448-1.626c-.654.583-1.161 1.327-1.538 2.197l1.996.866Zm.99-1.438c1.17-1.042 2.953-1.647 5.523-1.647v-2.176c-2.883 0-5.264.677-6.971 2.199l1.448 1.624Zm5.523-1.647c1.154 0 2.242.22 3.273.657l.85-2.003a10.457 10.457 0 0 0-4.123-.83v2.176Zm3.263.653c.962.42 1.585 1.015 1.953 1.773l1.957-.95c-.623-1.283-1.665-2.218-3.04-2.817l-.87 1.994Zm1.956 1.78c.203.41.313.878.313 1.42h2.176c0-.847-.174-1.648-.538-2.384l-1.95.963Zm.316 1.34-.128 1.754 2.17.158.128-1.754-2.17-.157Zm.963.745-8.617-.043-.01 2.176 8.616.043.01-2.176Zm-9.675 1.323c.255.964.877 1.695 1.75 2.189l1.07-1.895c-.43-.243-.63-.525-.715-.85l-2.105.556Zm1.754 2.191c.882.493 1.986.691 3.219.691v-2.176c-1.033 0-1.722-.17-2.157-.414l-1.062 1.9Zm3.219.691c1.323 0 2.777-.358 4.339-1.008l-.837-2.009c-1.398.583-2.559.841-3.502.841v2.176Zm3.92-.924h.574V58.35h-.573v2.176Zm-.51-1.17-.203 2.7 2.17.162.202-2.7-2.17-.162Z"/></symbol><symbol id="icon-icon-git" viewBox="0 0 32 32"><path d="M16 6.588c-5.17 0-9.412 4.242-9.412 9.412 0 4.411 3.096 8.419 7.206 9.412v-3.113a2.314 2.314 0 0 1-1.196-.031c-.556-.164-1.008-.535-1.344-1.099-.214-.36-.593-.753-.988-.724l-.097-1.098c.856-.073 1.594.521 2.033 1.258.196.328.421.52.709.605.278.083.577.043.925-.08.088-.697.408-.958.649-1.327-2.452-.365-3.429-1.666-3.816-2.692-.514-1.364-.238-3.066.67-4.143.018-.021.05-.075.038-.113-.417-1.259.09-2.3.109-2.41.481.141.559-.143 2.089.786l.264.159c.111.066.075.028.186.019a7.787 7.787 0 0 1 1.97-.276h.006a8.021 8.021 0 0 1 2.002.284l.086.009c-.008-.002.024-.006.075-.037 1.911-1.158 1.842-.779 2.355-.946.019.111.519 1.169.106 2.411-.056.171 1.656 1.739.708 4.256-.388 1.026-1.365 2.328-3.816 2.693.314.48.692.734.69 1.722v3.886c4.109-.993 7.206-5 7.206-9.412 0-5.17-4.242-9.412-9.412-9.412z"/></symbol><symbol id="icon-facebook" viewBox="0 0 32 32"><path d="M20.446 15.981h-2.611V25.6H13.88v-9.619H12v-3.379h1.88v-2.187c0-1.564.739-4.014 3.991-4.014l2.929.012v3.281h-2.125c-.348 0-.839.176-.839.922v1.989h2.955l-.345 3.377z"/></symbol><symbol id="icon-cursor" viewBox="0 0 32 32"><path stroke-width="1.333" d="m12.031 9.341 7.289 6.803c1.247 1.164.558 3.255-1.137 3.449l-2.745.313a3.324 3.324 0 0 0-1.854.837l.003-.003-1.582 1.424c-1.287 1.159-3.338.245-3.338-1.487v-9.875c0-1.749 2.087-2.655 3.365-1.462z"/></symbol><symbol id="icon-arrow-desc" viewBox="0 0 41 16"><path d="M40.707 8.707a1 1 0 0 0 0-1.414L34.343.929a1 1 0 1 0-1.414 1.414L38.586 8l-5.657 5.657a1 1 0 0 0 1.414 1.414l6.364-6.364ZM0 9h40V7H0v2Z"/></symbol><symbol id="icon-mob-menu" viewBox="0 0 32 32"><path d="M26.733 14H5.267c-.7 0-1.267.425-1.267.95v.1c0 .525.567.95 1.267.95h21.466c.7 0 1.267-.425 1.267-.95v-.1c0-.525-.567-.95-1.267-.95ZM26.733 20H5.267c-.7 0-1.267.425-1.267.95v.1c0 .525.567.95 1.267.95h21.466c.7 0 1.267-.425 1.267-.95v-.1c0-.525-.567-.95-1.267-.95ZM26.733 8H5.267C4.567 8 4 8.425 4 8.95v.1c0 .525.567.95 1.267.95h21.466c.7 0 1.267-.425 1.267-.95v-.1c0-.525-.567-.95-1.267-.95Z"/></symbol><symbol id="icon-close-btn" viewBox="0 0 32 32"><path d="M23.884 6.706 16 14.59 8.116 6.706a.998.998 0 0 0-1.41 1.41L14.586 16l-7.882 7.882a.997.997 0 1 0 1.41 1.412L16 17.412l7.884 7.884a.998.998 0 0 0 1.41-1.41l-7.884-7.884 7.884-7.886a.997.997 0 1 0-1.41-1.412v.002Z"/></symbol><symbol id="icon-arrow-right" viewBox="0 0 12 12"><path d="M3.191 1.22A.813.813 0 0 0 3 1.752c0 .199.069.39.191.531l3.233 3.722-3.233 3.72a.816.816 0 0 0-.183.53c.001.197.07.385.191.525s.285.218.456.22a.61.61 0 0 0 .46-.211l3.694-4.253A.813.813 0 0 0 8 6.005c0-.2-.069-.391-.191-.532L4.115 1.22A.613.613 0 0 0 3.653 1c-.173 0-.34.08-.462.22Z"/></symbol><symbol id="sticky-arrow" viewBox="0 0 256 256">&gt;<path fill="currentColor" d="m232.5 111.5-96-96a12 12 0 0 0-17 0l-96 96a12.2 12.2 0 0 0-2.6 13.1A12 12 0 0 0 32 132h36v76a20.1 20.1 0 0 0 20 20h80a20.1 20.1 0 0 0 20-20v-76h36a12 12 0 0 0 11.1-7.4 12.2 12.2 0 0 0-2.6-13.1ZM176 108a12 12 0 0 0-12 12v84H92v-84a12 12 0 0 0-12-12H61l67-67 67 67Z"/></symbol></defs></svg>